<?xml version="1.0" encoding="utf-8"?>
<!-- Generator: Adobe Illustrator 27.0.1, SVG Export Plug-In . SVG Version: 6.00 Build 0)  -->
<svg version="1.1" id="Слой_1" xmlns="http://www.w3.org/2000/svg" xmlns:xlink="http://www.w3.org/1999/xlink" x="0px" y="0px"
	 width="264px" height="88px" viewBox="0 0 264 88" style="enable-background:new 0 0 264 88;" xml:space="preserve">
<style type="text/css">
	.st0{fill:#FFFFFF;}
</style>
<path class="st0" d="M111.7,20.5c0,0.4-0.3,0.8-0.8,0.8h-2.3v2.3c0,0.4-0.3,0.8-0.8,0.8c-0.4,0-0.8-0.3-0.8-0.8v-2.3h-2.3
	c-0.4,0-0.8-0.3-0.8-0.8s0.3-0.8,0.8-0.8h2.3v-2.3c0-0.4,0.3-0.8,0.8-0.8c0.4,0,0.8,0.3,0.8,0.8v2.3h2.3
	C111.3,19.7,111.7,20,111.7,20.5z M119.1,31.8c-0.3,0.3-0.8,0.3-1.1,0c0,0,0,0,0,0l-4.8-4.8c-3.6,3-8.9,2.5-11.9-1.1
	S98.8,17,102.4,14c3.6-3,8.9-2.5,11.9,1.1c2.6,3.1,2.6,7.7,0,10.8l4.8,4.8C119.4,31,119.4,31.5,119.1,31.8
	C119.1,31.8,119.1,31.8,119.1,31.8z M107.8,27.4c3.8,0,6.9-3.1,6.9-6.9s-3.1-6.9-6.9-6.9c-3.8,0-6.9,3.1-6.9,6.9
	C100.9,24.3,104,27.4,107.8,27.4z"/>
<path class="st0" d="M155.7,20.5c0,0.4-0.3,0.8-0.8,0.8h-6.1c-0.4,0-0.8-0.3-0.8-0.8s0.3-0.8,0.8-0.8h6.1
	C155.3,19.7,155.7,20,155.7,20.5z M163.1,31.8c-0.3,0.3-0.8,0.3-1.1,0c0,0,0,0,0,0l-4.8-4.8c-3.6,3-8.9,2.5-11.9-1.1
	s-2.5-8.9,1.1-11.9c3.6-3,8.9-2.5,11.9,1.1c2.6,3.1,2.6,7.7,0,10.8l4.8,4.8C163.4,31,163.4,31.5,163.1,31.8
	C163.1,31.8,163.1,31.8,163.1,31.8z M151.8,27.4c3.8,0,6.9-3.1,6.9-6.9s-3.1-6.9-6.9-6.9s-6.9,3.1-6.9,6.9
	C144.9,24.3,148,27.4,151.8,27.4z"/>
<path class="st0" d="M70.3,68.9c-1,0-1.9,0.4-2.6,1.1l-4.1-2.6c0.3-0.8,0.3-1.8,0-2.6l4.1-2.6c1.4,1.4,3.6,1.4,5,0.1
	c1.4-1.4,1.4-3.6,0.1-5s-3.6-1.4-5-0.1c-1,1-1.4,2.5-0.8,3.8l-4.1,2.6c-1.4-1.4-3.6-1.4-5-0.1c-1.4,1.4-1.4,3.6-0.1,5s3.6,1.4,5,0.1
	c0,0,0,0,0.1-0.1l4.1,2.6c-0.7,1.8,0.2,3.9,2,4.6c1.8,0.7,3.9-0.2,4.6-2c0.7-1.8-0.2-3.9-2-4.6C71.2,68.9,70.8,68.9,70.3,68.9z
	 M70.3,57.4c1.2,0,2.1,1,2.1,2.1c0,1.2-1,2.1-2.1,2.1s-2.1-1-2.1-2.1C68.2,58.4,69.1,57.4,70.3,57.4z M60.3,68.1
	c-1.2,0-2.1-1-2.1-2.1c0-1.2,1-2.1,2.1-2.1c1.2,0,2.1,1,2.1,2.1C62.5,67.2,61.5,68.1,60.3,68.1z M70.3,74.6c-1.2,0-2.1-1-2.1-2.1
	c0-1.2,1-2.1,2.1-2.1s2.1,1,2.1,2.1C72.5,73.6,71.5,74.6,70.3,74.6z"/>
<path d="M30.7,73.5c0.4,0.4,0.4,0.9,0,1.3c-0.4,0.4-0.9,0.4-1.3,0l0,0L22,67.3l-7.5,7.5c-0.4,0.4-0.9,0.4-1.3,0s-0.4-0.9,0-1.3
	l7.5-7.5l-7.5-7.5c-0.4-0.4-0.4-0.9,0-1.3c0.4-0.4,0.9-0.4,1.3,0l0,0l7.5,7.5l7.5-7.5c0.4-0.4,0.9-0.4,1.3,0c0.4,0.4,0.4,0.9,0,1.3
	l0,0l-7.5,7.5L30.7,73.5z"/>
<path class="st0" d="M163.3,66.1c0,0.5-0.4,0.8-0.8,0.8h-16.3l6.1,6.1c0.3,0.3,0.3,0.9,0,1.2c-0.3,0.3-0.9,0.3-1.2,0l-7.5-7.5
	c-0.3-0.3-0.3-0.9,0-1.2c0,0,0,0,0,0l7.5-7.5c0.3-0.3,0.9-0.3,1.2,0c0.3,0.3,0.3,0.9,0,1.2l-6.1,6.1h16.3
	C163,65.2,163.3,65.6,163.3,66.1z"/>
<path class="st0" d="M119.1,66.6l-7.5,7.5c-0.3,0.3-0.9,0.3-1.2,0c-0.3-0.3-0.3-0.9,0-1.2l0,0l6.1-6.1h-16.3c-0.5,0-0.8-0.4-0.8-0.8
	c0-0.5,0.4-0.8,0.8-0.8h16.3l-6.1-6.1c-0.3-0.3-0.3-0.9,0-1.2c0.3-0.3,0.9-0.3,1.2,0l7.5,7.5C119.4,65.8,119.4,66.3,119.1,66.6
	C119.1,66.6,119.1,66.6,119.1,66.6z"/>
<path class="st0" d="M68.5,18.4v-5.5c0-0.5,0.4-0.9,0.9-0.9s0.9,0.4,0.9,0.9v4.5h4.5c0.5,0,0.9,0.4,0.9,0.9s-0.4,0.9-0.9,0.9h-5.5
	C68.9,19.3,68.5,18.9,68.5,18.4z M62.2,24.8h-5.5c-0.5,0-0.9,0.4-0.9,0.9c0,0.5,0.4,0.9,0.9,0.9h4.5v4.5c0,0.5,0.4,0.9,0.9,0.9
	c0.5,0,0.9-0.4,0.9-0.9v-5.5C63.1,25.2,62.7,24.8,62.2,24.8z M74.9,24.8h-5.5c-0.5,0-0.9,0.4-0.9,0.9v5.5c0,0.5,0.4,0.9,0.9,0.9
	s0.9-0.4,0.9-0.9v-4.5h4.5c0.5,0,0.9-0.4,0.9-0.9C75.8,25.2,75.4,24.8,74.9,24.8z M62.2,12c-0.5,0-0.9,0.4-0.9,0.9v4.5h-4.5
	c-0.5,0-0.9,0.4-0.9,0.9s0.4,0.9,0.9,0.9h5.5c0.5,0,0.9-0.4,0.9-0.9v-5.5C63.1,12.4,62.7,12,62.2,12z"/>
<path class="st0" d="M32,13v4.5c0,0.5-0.4,0.9-0.9,0.9c-0.5,0-0.9-0.4-0.9-0.9v-3.6h-3.6c-0.5,0-0.9-0.4-0.9-0.9
	c0-0.5,0.4-0.9,0.9-0.9h4.5C31.6,12.1,32,12.5,32,13z M17.5,30.2h-3.6v-3.6c0-0.5-0.4-0.9-0.9-0.9S12,26.1,12,26.6v4.5
	c0,0.5,0.4,0.9,0.9,0.9h4.5c0.5,0,0.9-0.4,0.9-0.9S18,30.2,17.5,30.2z M31.1,25.7c-0.5,0-0.9,0.4-0.9,0.9v3.6h-3.6
	c-0.5,0-0.9,0.4-0.9,0.9s0.4,0.9,0.9,0.9h4.5c0.5,0,0.9-0.4,0.9-0.9v-4.5C32,26.1,31.6,25.7,31.1,25.7z M17.5,12.1h-4.5
	c-0.5,0-0.9,0.4-0.9,0.9v4.5c0,0.5,0.4,0.9,0.9,0.9s0.9-0.4,0.9-0.9v-3.6h3.6c0.5,0,0.9-0.4,0.9-0.9C18.4,12.5,18,12.1,17.5,12.1z"
	/>
</svg>
