<?xml version="1.0" encoding="utf-8"?>
<!-- Generator: Adobe Illustrator 27.0.1, SVG Export Plug-In . SVG Version: 6.00 Build 0)  -->
<svg version="1.1" id="Layer_1" xmlns="http://www.w3.org/2000/svg" xmlns:xlink="http://www.w3.org/1999/xlink" x="0px" y="0px"
	 width="120px" height="120px" viewBox="0 0 120 120" style="enable-background:new 0 0 120 120;" xml:space="preserve">
<style type="text/css">
	.st0{fill:#6B57FF;}
</style>
<path id="logo_00000165220144031682839950000007072584898013737886_" class="st0" d="M115.6,48.9c-1.4-2.2-2.8-4.2-3.5-6.3
	c-0.7-2.2-0.8-4.9-0.9-7.4c-0.2-3.9-0.3-7.9-2.5-10.9c-2.2-3.1-6-4.5-9.7-5.8c-2.5-0.9-4.9-1.8-6.7-3.2c-1.8-1.3-3.4-3.3-5-5.4
	c-2.4-3.1-5-6.3-8.6-7.5c-3.5-1.1-7.3-0.1-11,1c-2.5,0.7-5.1,1.4-7.5,1.4s-5-0.7-7.5-1.4c-3.7-1-7.5-2.1-11-1
	c-3.7,1.2-6.2,4.4-8.6,7.5c-1.6,2.1-3.2,4-5,5.4c-1.9,1.4-4.2,2.2-6.7,3.2c-3.7,1.4-7.4,2.8-9.7,5.8c-2.2,3-2.4,7-2.5,10.9
	c-0.1,2.6-0.2,5.2-0.9,7.4c-0.7,2.1-2,4.1-3.5,6.3c-2.2,3.3-4.5,6.7-4.5,10.6c0,3.9,2.3,7.3,4.5,10.6C6,72.3,7.3,74.4,8,76.5
	c0.7,2.2,0.8,4.9,0.9,7.4c0.2,3.9,0.3,7.9,2.5,10.9c2.2,3.1,6,4.5,9.7,5.8c2.5,0.9,4.9,1.8,6.7,3.2c1.8,1.3,3.4,3.3,5,5.4
	c2.4,3.1,5,6.3,8.6,7.5c1.1,0.3,2.2,0.5,3.3,0.5c2.5,0,5.2-0.7,7.8-1.4c2.5-0.7,5.1-1.4,7.5-1.4s5,0.7,7.5,1.4c3.7,1,7.5,2.1,11,1
	c3.7-1.2,6.2-4.4,8.6-7.5c1.6-2.1,3.2-4,5-5.4c1.9-1.4,4.2-2.2,6.7-3.2c3.7-1.4,7.4-2.8,9.7-5.8c2.2-3,2.4-7,2.5-10.9
	c0.1-2.6,0.2-5.2,0.9-7.4c0.7-2.1,2-4.1,3.5-6.3c2.2-3.3,4.5-6.7,4.5-10.6C120.1,55.6,117.8,52.2,115.6,48.9z M108.3,28.5
	c0,0.1,0,0.1,0.1,0.2c-0.1-0.1-0.1-0.2-0.2-0.2C108.2,28.4,108.3,28.5,108.3,28.5z M107,25.4c0.1,0.2,0.2,0.3,0.3,0.5
	c-0.1,0-0.3-0.1-0.4-0.1c-1.5-0.5-2.9-1.1-4.1-1.7c-0.8-1.1-1.7-2.1-2.6-3.1C103,22.1,105.5,23.3,107,25.4z M13.1,93.6
	c-1.8-2.5-2-6.1-2.2-9.8c-0.1-2.7-0.2-5.5-1-8c-0.8-2.4-2.3-4.6-3.7-6.8c-2-3-4.1-6.2-4.1-9.5s2.1-6.5,4.1-9.5
	c1.5-2.2,3-4.4,3.7-6.8c0.8-2.5,0.9-5.3,1-8c0.2-3.8,0.3-7.3,2.2-9.8c1.9-2.6,5.2-3.8,8.8-5.1c2.5-0.9,5.1-1.9,7.2-3.4
	c2-1.5,3.7-3.6,5.4-5.7c2.4-3,4.6-5.8,7.7-6.8C43,4.1,43.9,4,44.8,4C47,4,49.5,4.6,52,5.3c2.6,0.7,5.4,1.5,8,1.5s5.4-0.8,8-1.5
	c3.6-1,7-1.9,9.9-1c2.5,0.8,4.4,2.8,6.2,5c-2.8-0.2-5.8,0.6-8.6,1.4c-2.5,0.7-5.1,1.4-7.5,1.4s-5-0.7-7.5-1.4c-3.7-1-7.5-2.1-11-1
	c-3.6,1.2-6.2,4.4-8.6,7.5c-1.6,2.1-3.2,4-5,5.4c-1.9,1.4-4.2,2.2-6.7,3.2c-3.7,1.4-7.4,2.8-9.7,5.8c-2.2,3-2.4,7-2.5,10.9
	c-0.1,2.6-0.2,5.2-0.9,7.4c-0.7,2.1-2,4.1-3.5,6.3C10.3,59.6,8,63,8,66.9c0,3.9,2.3,7.3,4.5,10.6c1.4,2.2,2.8,4.2,3.5,6.3
	c0.7,2.2,0.8,4.9,0.9,7.4c0.1,1.9,0.2,3.9,0.5,5.7C15.7,96.1,14.2,95.1,13.1,93.6z M21.9,98.8c-0.7-0.3-1.5-0.5-2.2-0.8
	c-0.6-2-0.7-4.4-0.8-6.8c-0.1-2.7-0.2-5.5-1-8c-0.8-2.4-2.3-4.6-3.7-6.8c-2-3-4.1-6.2-4.1-9.5c0-3.3,2.1-6.5,4.1-9.5
	c1.5-2.2,3-4.4,3.7-6.8c0.8-2.5,0.9-5.3,1-8c0.2-3.8,0.3-7.3,2.2-9.8c1.9-2.6,5.2-3.8,8.8-5.1c2.5-0.9,5.1-1.9,7.2-3.4
	c2-1.5,3.7-3.6,5.4-5.7c2.4-3,4.6-5.8,7.7-6.8c0.9-0.3,1.7-0.4,2.7-0.4c2.2,0,4.7,0.7,7.2,1.4c2.6,0.7,5.4,1.5,8,1.5
	c2.7,0,5.4-0.8,8-1.5c3.6-1,7-1.9,9.9-1c0.1,0,0.1,0.1,0.2,0.1c-0.1-0.1-0.1-0.2-0.2-0.2c1.5,1.9,3.1,3.8,4.9,5.2
	c-2.4,0.1-4.9,0.7-7.3,1.4c-2.5,0.7-5.1,1.4-7.5,1.4s-5-0.7-7.5-1.4c-3.7-1-7.5-2.1-11-1c-3.6,1.2-6.2,4.4-8.6,7.5
	c-1.6,2.1-3.2,4-5,5.4c-1.9,1.4-4.2,2.2-6.7,3.2c-3.7,1.4-7.4,2.8-9.7,5.8c-2.2,3-2.4,7-2.5,10.9c-0.1,2.6-0.2,5.2-0.9,7.4
	c-0.7,2.1-2,4.1-3.5,6.3c-2.2,3.3-4.5,6.7-4.5,10.6c0,3.9,2.3,7.3,4.5,10.6c1.4,2.2,2.8,4.2,3.5,6.3c0.7,2.2,0.8,4.9,0.9,7.4
	c0,0.5,0.1,0.9,0.1,1.4C24,99.6,22.9,99.2,21.9,98.8z M29.1,102.2c-0.6-0.5-1.3-0.8-2-1.2c0,0,0,0,0,0c-0.1-0.8-0.1-1.6-0.1-2.5
	c-0.1-2.7-0.2-5.5-1-8c-0.8-2.4-2.3-4.6-3.7-6.8c-2-3-4.1-6.2-4.1-9.5c0-3.3,2.1-6.5,4.1-9.5c1.5-2.2,3-4.4,3.7-6.8
	c0.8-2.5,0.9-5.3,1-8c0.2-3.8,0.3-7.3,2.2-9.8c1.9-2.6,5.2-3.8,8.8-5.1c2.5-0.9,5.1-1.9,7.2-3.4c2-1.5,3.7-3.6,5.4-5.7
	c2.4-3,4.6-5.8,7.7-6.8c0.9-0.3,1.7-0.4,2.7-0.4c2.2,0,4.7,0.7,7.2,1.4c2.6,0.7,5.4,1.5,8,1.5c2.7,0,5.4-0.8,8-1.5
	c3.6-1,7-1.9,9.9-1c0.1,0,0.1,0,0.1,0.1c1.4,1.8,2.9,3.6,4.7,4.9c-2.4,0.1-4.8,0.8-7.3,1.4c-2.5,0.7-5.1,1.4-7.5,1.4s-5-0.7-7.5-1.4
	c-3.7-1-7.5-2.1-11-1c-3.7,1.2-6.2,4.4-8.6,7.5c-1.6,2.1-3.2,4-5,5.4c-1.9,1.4-4.2,2.2-6.7,3.2c-3.7,1.4-7.4,2.8-9.7,5.8
	c-2.2,3-2.4,7-2.5,10.9c-0.1,2.6-0.2,5.2-0.9,7.4c-0.7,2.1-2,4.1-3.5,6.3c-2.2,3.3-4.5,6.7-4.5,10.6c0,3.9,2.3,7.3,4.5,10.6
	c1.4,2.2,2.8,4.2,3.5,6.3c0.7,2.2,0.8,4.9,0.9,7.4c0,0,0,0.1,0,0.1C31.8,104.6,30.5,103.2,29.1,102.2z M37.1,109.5
	c-0.6-0.5-1.3-0.8-2-1.2c-0.1-0.8-0.1-1.6-0.1-2.5c-0.1-2.7-0.2-5.5-1-8c-0.8-2.4-2.3-4.6-3.7-6.8c-2-3-4.1-6.2-4.1-9.5
	c0-3.3,2.1-6.5,4.1-9.5c1.5-2.2,3-4.4,3.7-6.8c0.8-2.5,0.9-5.3,1-8c0.2-3.8,0.3-7.3,2.2-9.8c1.9-2.6,5.2-3.8,8.8-5.1
	c2.5-0.9,5.1-1.9,7.2-3.4c2-1.5,3.7-3.6,5.4-5.7c2.4-3,4.6-5.8,7.7-6.8c0.9-0.3,1.7-0.4,2.7-0.4c2.2,0,4.7,0.7,7.2,1.4
	c2.6,0.7,5.4,1.5,8,1.5c2.7,0,5.4-0.8,8-1.5c3.6-1,7-1.9,9.9-1c0.1,0,0.1,0,0.1,0.1c1.4,1.8,2.9,3.6,4.7,4.9
	c-2.4,0.1-4.8,0.8-7.3,1.4c-2.5,0.7-5.1,1.4-7.5,1.4s-5-0.7-7.5-1.4c-3.7-1-7.5-2.1-11-1c-3.6,1.2-6.2,4.4-8.6,7.5
	c-1.6,2.1-3.2,4-5,5.4c-1.9,1.4-4.2,2.2-6.7,3.2c-3.7,1.4-7.4,2.8-9.7,5.8c-2.2,3-2.4,7-2.5,10.9c-0.1,2.6-0.2,5.2-0.9,7.4
	c-0.7,2.1-2,4.1-3.5,6.3C34.3,81.6,32,85,32,89c0,3.9,2.3,7.3,4.5,10.6c1.4,2.2,2.8,4.2,3.5,6.3c0.7,2.2,0.8,4.9,0.9,7.4
	c0,0,0,0.1,0,0.1C39.8,112,38.5,110.6,37.1,109.5z M43,114.9c0-0.6-0.1-1.1-0.1-1.7c-0.1-2.7-0.2-5.5-1-8c-0.8-2.4-2.3-4.6-3.7-6.8
	c-2-3-4.1-6.2-4.1-9.5c0-3.3,2.1-6.5,4.1-9.5c1.5-2.2,3-4.4,3.7-6.8c0.8-2.5,0.9-5.3,1-8c0.2-3.8,0.3-7.3,2.2-9.8
	c1.9-2.6,5.2-3.8,8.8-5.1c2.5-0.9,5.1-1.9,7.2-3.4c2-1.5,3.7-3.6,5.4-5.7c2.4-3,4.6-5.8,7.7-6.8c0.9-0.3,1.7-0.4,2.7-0.4
	c2.2,0,4.7,0.7,7.2,1.4c2.6,0.7,5.4,1.5,8,1.5c2.7,0,5.4-0.8,8-1.5c3.2-0.9,6.3-1.7,9-1.2c0,0.6,0.1,1.1,0.1,1.7
	c0.1,1.5,0.1,3,0.3,4.4c-0.6,0.2-1.3,0.3-1.9,0.5c-2.5,0.7-5.1,1.4-7.5,1.4s-5-0.7-7.5-1.4c-3.7-1-7.5-2.1-11-1
	c-3.6,1.2-6.2,4.4-8.6,7.5c-1.6,2.1-3.2,4-5,5.4c-1.9,1.4-4.2,2.2-6.7,3.2c-3.7,1.4-7.4,2.8-9.7,5.8c-2.2,3-2.4,7-2.5,10.9
	c-0.1,2.6-0.2,5.2-0.9,7.4c-0.7,2.1-2,4.1-3.5,6.3C42.3,89,40,92.4,40,96.3c0,3.9,2.3,7.3,4.5,10.6c1.4,2.2,2.8,4.2,3.5,6.3
	c0.2,0.5,0.3,1,0.4,1.4C46.5,115.1,44.7,115.3,43,114.9z M52,113.7c-0.6,0.2-1.1,0.3-1.7,0.5c-0.1-0.5-0.2-1.1-0.4-1.6
	c-0.8-2.4-2.3-4.6-3.7-6.8c-2-3-4.1-6.2-4.1-9.5c0-3.3,2.1-6.5,4.1-9.5c1.5-2.2,3-4.4,3.7-6.8c0.8-2.5,0.9-5.3,1-8
	c0.2-3.8,0.3-7.3,2.2-9.8c1.9-2.6,5.2-3.8,8.8-5.1c2.5-0.9,5.1-1.9,7.2-3.4c2-1.5,3.7-3.6,5.4-5.7c2.4-3,4.6-5.8,7.7-6.8
	c0.9-0.3,1.7-0.4,2.7-0.4c2.2,0,4.7,0.7,7.2,1.4c2.6,0.7,5.4,1.5,8,1.5c2.7,0,5.4-0.8,8-1.5c0.6-0.2,1.1-0.3,1.7-0.5
	c0.1,0.5,0.2,1.1,0.4,1.6c0.6,1.7,1.5,3.4,2.6,5c0,0,0,0,0,0c-1.6,0.4-3.2,0.7-4.7,0.7c-2.4,0-5-0.7-7.5-1.4c-3.7-1-7.5-2.1-11-1
	c-3.7,1.2-6.2,4.4-8.6,7.5c-1.6,2.1-3.2,4-5,5.4c-1.9,1.4-4.2,2.2-6.7,3.2c-3.7,1.4-7.4,2.8-9.7,5.8c-2.2,3-2.4,7-2.5,10.9
	c-0.1,2.6-0.2,5.2-0.9,7.4c-0.7,2.1-2,4.1-3.5,6.3c-2.2,3.3-4.5,6.7-4.5,10.6c0,3.7,2,6.9,4.1,10c0,0,0,0,0,0
	C52.1,113.7,52,113.7,52,113.7z M54.1,113.2c-2-3-4.1-6.2-4.1-9.5c0-3.3,2.1-6.5,4.1-9.5c1.5-2.2,3-4.4,3.7-6.8c0.8-2.5,0.9-5.3,1-8
	c0.2-3.8,0.3-7.3,2.2-9.8c1.9-2.6,5.2-3.8,8.8-5.1c2.5-0.9,5.1-1.9,7.2-3.4c2-1.5,3.7-3.6,5.4-5.7c2.4-3,4.6-5.8,7.7-6.8
	c0.9-0.3,1.7-0.4,2.7-0.4c2.2,0,4.7,0.7,7.2,1.4c2.6,0.7,5.4,1.5,8,1.5c2,0,3.9-0.4,5.9-0.9c1.4,2.1,2.8,4.3,3.5,6.5
	c-0.6,0.1-1.2,0.1-1.8,0.1c-2.4,0-5-0.7-7.5-1.4c-3.7-1-7.5-2.1-11-1c-3.7,1.2-6.2,4.4-8.6,7.5c-1.6,2.1-3.2,4-5,5.4
	c-1.9,1.4-4.2,2.2-6.7,3.2c-3.7,1.4-7.4,2.8-9.7,5.8c-2.2,3-2.4,7-2.5,10.9c-0.1,2.6-0.2,5.2-0.9,7.4c-0.7,2.1-2,4.1-3.5,6.3
	c-2.2,3.3-4.5,6.7-4.5,10.6c0,0.5,0,1,0.1,1.4C55.2,112.9,54.7,113,54.1,113.2z M107,93.6c-1.9,2.6-5.2,3.8-8.8,5.1
	c-2.5,0.9-5.1,1.9-7.2,3.4c-0.1,0.1-0.3,0.2-0.4,0.3c0,0,0,0,0,0c0.3-0.8,0.7-1.6,1.1-2.2c1.9-2.6,5.2-3.8,8.8-5.1
	c2.5-0.9,5.1-1.9,7.2-3.4c0.1-0.1,0.3-0.2,0.4-0.3C107.8,92.2,107.5,93,107,93.6z M110.2,75.8c-0.8,2.5-0.9,5.3-1,8
	c-0.1,1.4-0.1,2.9-0.3,4.2c-0.7,0.8-1.5,1.5-2.3,2.1c-1.9,1.4-4.2,2.2-6.7,3.2c-3.7,1.4-7.4,2.8-9.7,5.8c-1.2,1.7-1.8,3.8-2.1,5.9
	c-0.8,0.9-1.6,1.9-2.4,2.9c-2.1,2.6-4,5.1-6.6,6.4c0.8-1.3,1.4-2.5,1.9-3.9c0.8-2.5,0.9-5.3,1-8c0.2-3.8,0.3-7.3,2.2-9.8
	c1.9-2.6,5.2-3.8,8.8-5.1c2.5-0.9,5.1-1.9,7.2-3.4c2-1.5,3.7-3.6,5.4-5.7c2.1-2.6,4.1-5.1,6.6-6.4c0,0,0,0,0,0
	C111.3,73.2,110.6,74.5,110.2,75.8z M113.9,69c-0.1,0.1-0.1,0.2-0.2,0.3c-0.4,0.1-0.8,0.2-1.2,0.3c-3.7,1.2-6.2,4.4-8.6,7.5
	c-1.6,2.1-3.2,4-5,5.4c-1.9,1.4-4.2,2.2-6.7,3.2c-3.7,1.4-7.4,2.8-9.7,5.8c-2.2,3-2.4,7-2.5,10.9c-0.1,2.6-0.2,5.2-0.9,7.4
	c-0.6,1.8-1.6,3.5-2.8,5.3c-2.5,0.2-5.2-0.5-8.1-1.3c-0.3-0.1-0.7-0.2-1.1-0.3c0.7-1.3,1.6-2.6,2.4-3.9c1.5-2.2,3-4.4,3.7-6.8
	c0.8-2.5,0.9-5.3,1-8c0.2-3.8,0.3-7.3,2.2-9.8c1.9-2.6,5.2-3.8,8.8-5.1c2.5-0.9,5.1-1.9,7.2-3.4c2-1.5,3.7-3.6,5.4-5.7
	c2.4-3,4.6-5.8,7.7-6.8c0.9-0.3,1.7-0.4,2.7-0.4c2.2,0,4.7,0.7,7.2,1.4c0.3,0.1,0.7,0.2,1.1,0.3C115.7,66.4,114.8,67.8,113.9,69z
	 M115.9,62.9c-3.7-1-7.5-2.1-11-1c-3.7,1.2-6.2,4.4-8.6,7.5c-1.6,2.1-3.2,4-5,5.4c-1.9,1.4-4.2,2.2-6.7,3.2
	c-3.7,1.4-7.4,2.8-9.7,5.8c-2.2,3-2.4,7-2.5,10.9c-0.1,2.6-0.2,5.2-0.9,7.4c-0.7,2.1-2,4.1-3.5,6.3c-1,1.5-2,3-2.8,4.5
	c-1.7-0.4-3.4-0.7-5-0.7c-0.8,0-1.5,0.1-2.3,0.2c0-0.4-0.1-0.7-0.1-1.1c0-3.3,2.1-6.5,4.1-9.5c1.5-2.2,3-4.4,3.7-6.8
	c0.8-2.5,0.9-5.3,1-8c0.2-3.8,0.3-7.3,2.2-9.8c1.9-2.6,5.2-3.8,8.8-5.1c2.5-0.9,5.1-1.9,7.2-3.4c2-1.5,3.7-3.6,5.4-5.7
	c2.4-3,4.6-5.8,7.7-6.8c0.9-0.3,1.7-0.4,2.7-0.4c2.2,0,4.7,0.7,7.2,1.4c2.6,0.7,5.4,1.5,8,1.5c0.8,0,1.5-0.1,2.3-0.2
	c0.1,0.4,0.1,0.7,0.1,1.1c0,1.3-0.3,2.5-0.8,3.7C116.8,63.2,116.3,63,115.9,62.9z"/>
</svg>
